<svg viewBox="0 0 298.92 52.9" xmlns="http://www.w3.org/2000/svg"><path d="m39 49.2h-9.4v10.1a2.39 2.39 0 0 1 -2.5 2.4 2.37 2.37 0 0 1 -2.4-2.4v-26a2.37 2.37 0 0 1 2.4-2.4h11.9c7.1 0 10.4 4.4 10.4 9.2s-3.3 9.1-10.4 9.1zm.7-13.8h-10v9.3h10a4.46 4.46 0 0 0 4.8-4.6 4.53 4.53 0 0 0 -4.8-4.7zm43.5 26.4a2.37 2.37 0 0 1 -2.4-2.4v-11.2h-15.1v11.1a2.31 2.31 0 0 1 -2.4 2.4 2.37 2.37 0 0 1 -2.4-2.4v-26a2.4 2.4 0 0 1 4.8 0v10.4h15.1v-10.4a2.4 2.4 0 1 1 4.8 0v26a2.39 2.39 0 0 1 -2.4 2.5zm86.1-26.3h-8.9v23.8a2.48 2.48 0 0 1 -2.5 2.5 2.39 2.39 0 0 1 -2.4-2.5v-23.8h-8.9a2.3 2.3 0 1 1 0-4.6h22.7a2.3 2.3 0 0 1 0 4.6zm24.5 26.5a15.39 15.39 0 0 1 -15.3-15.7 15.31 15.31 0 1 1 15.3 15.7zm0-26.8c-6.3 0-10.5 5.2-10.5 11.2s4.2 11.2 10.5 11.2 10.5-5.2 10.5-11.2-4.2-11.2-10.5-11.2zm41.7 26.6h-11.5a2.48 2.48 0 0 1 -2.5-2.5v-25.9a2.48 2.48 0 0 1 2.5-2.5h10.7c5.9 0 9.4 3.1 9.4 7.6 0 3-1.3 5.6-3.7 6.8a8 8 0 0 1 5.5 7.9c.1 4.8-3.8 8.6-10.4 8.6zm-.4-26.3h-8.5v7.8h8.5a3.9 3.9 0 1 0 0-7.8zm1.1 12.2h-9.6v9.5h9.6a4.68 4.68 0 0 0 4.9-4.7 4.76 4.76 0 0 0 -4.9-4.8zm36.2 14.3a15.39 15.39 0 0 1 -15.3-15.7 15.31 15.31 0 1 1 15.3 15.7zm0-26.8c-6.3 0-10.5 5.2-10.5 11.2s4.2 11.2 10.5 11.2 10.5-5.2 10.5-11.2-4.2-11.2-10.5-11.2zm50.5 26.2a2.39 2.39 0 0 1 -1.4.5 2.46 2.46 0 0 1 -1.9-.9l-8.3-11-8.3 11a2.43 2.43 0 0 1 -1.8.9 2.39 2.39 0 0 1 -1.4-.5 2.14 2.14 0 0 1 -.8-1.7 1.87 1.87 0 0 1 .5-1.4l9-11.9-9-11.9a2.39 2.39 0 0 1 -.5-1.4 2.1 2.1 0 0 1 1-1.8 2.84 2.84 0 0 1 1.2-.4 2.14 2.14 0 0 1 1.8.9l8.2 10.9 8.3-10.9a2.23 2.23 0 0 1 1.7-.9 2.39 2.39 0 0 1 1.4.5 2.43 2.43 0 0 1 .9 1.8 1.9 1.9 0 0 1 -.5 1.3l-9 11.8 9.1 11.9a2.65 2.65 0 0 1 .5 1.4 2.09 2.09 0 0 1 -.7 1.8zm-210.7-40.3c0 1.4.9 4.8 1.3 7.8s.4 5.5 1.6 5.5c.8 0 1.3-.6 1.3-1.6s.9-4.6.9-7.7c0-1 .4-1.2.4-2.7s-.6-4.1-3-4.1a2.57 2.57 0 0 0 -2.5 2.8zm11.3 19.5c2.9 0 8.1-5.2 9.3-5.6a3.44 3.44 0 0 0 2-1.5 2.75 2.75 0 0 1 2.1-1.4c.7-.3 1.9-.9 1.9-1.8s-.4-1.2-1-1.2c-3.9 0-16.6 5.9-16.6 9.5a2.21 2.21 0 0 0 2.3 2zm-3.7 9c0 2 1.9 1.4 2.1 3.4.2 1.6 1.9 3.6 3 4.5 2 1.5 2.7 5.2 5.6 5.2a1.67 1.67 0 0 0 1.9-1.7c0-4.3-8.1-12.8-11.4-12.8-.7 0-1.2.4-1.2 1.4zm-23.2 19.4c0 1.3.3 2.2 1.8 2.2 2.8 0 4.4-5.1 6.9-9.8 2.2-4.2 3.6-5.6 4.8-8.6.5-1.4 1.9-.9 1.9-2.3 0-.9-.7-1.2-1.5-1.2-4 0-13.9 15.6-13.9 19.7zm7.8-28.2c1.6 0 4 1.9 4-.1 0-2.8-6.8-6.4-10.2-6.4-1.4 0-2.1.7-2.1 1.7.1 4.1 6.8 4.8 8.3 4.8z" fill="#ffffff" transform="translate(-24.7 -18.3)"/></svg>
